<?xml version="1.0" encoding="UTF-8"?>
<svg xmlns="http://www.w3.org/2000/svg" id="Layer_1" data-name="Layer 1" viewBox="0 0 24 24">
  <path d="m17.5,0H6.5C4.019,0,2,2.019,2,4.5v15c0,2.481,2.019,4.5,4.5,4.5h11c2.481,0,4.5-2.019,4.5-4.5V4.5c0-2.481-2.019-4.5-4.5-4.5ZM6.5,1h11c1.93,0,3.5,1.57,3.5,3.5v2.5H3v-2.5c0-1.93,1.57-3.5,3.5-3.5Zm11,22H6.5c-1.93,0-3.5-1.57-3.5-3.5v-11.5h18v11.5c0,1.93-1.57,3.5-3.5,3.5Zm0-13H6.5c-.827,0-1.5.673-1.5,1.5v8c0,.827.673,1.5,1.5,1.5h11c.827,0,1.5-.673,1.5-1.5v-8c0-.827-.673-1.5-1.5-1.5Zm.5,9.5c0,.275-.225.5-.5.5H6.5c-.276,0-.5-.225-.5-.5v-8c0-.276.224-.5.5-.5h11c.275,0,.5.224.5.5v8ZM9,4c0-.552.448-1,1-1s1,.448,1,1-.448,1-1,1-1-.448-1-1Zm4,0c0-.552.448-1,1-1s1,.448,1,1-.448,1-1,1-1-.448-1-1Zm4,0c0-.552.448-1,1-1s1,.448,1,1-.448,1-1,1-1-.448-1-1Zm-12,0c0-.552.448-1,1-1s1,.448,1,1-.448,1-1,1-1-.448-1-1Z"/>
</svg>
