<?xml version="1.0" encoding="UTF-8"?>
<svg xmlns="http://www.w3.org/2000/svg" id="Layer_1" data-name="Layer 1" viewBox="0 0 24 24">
  <path d="m17.5,0H6.5C4.019,0,2,2.019,2,4.5v15c0,2.481,2.019,4.5,4.5,4.5h11c2.481,0,4.5-2.019,4.5-4.5V4.5c0-2.481-2.019-4.5-4.5-4.5Zm3.5,19.5c0,1.93-1.57,3.5-3.5,3.5H6.5c-1.93,0-3.5-1.57-3.5-3.5V4.5c0-1.93,1.57-3.5,3.5-3.5h11c1.93,0,3.5,1.57,3.5,3.5v15ZM6,5c-.552,0-1-.448-1-1s.448-1,1-1,1,.448,1,1-.448,1-1,1Zm3-1c0-.552.448-1,1-1s1,.448,1,1-.448,1-1,1-1-.448-1-1Zm3,4c-3.309,0-6,2.691-6,6s2.691,6,6,6,6-2.691,6-6-2.691-6-6-6Zm0,1c2.684,0,4.865,2.131,4.979,4.788-.313.243-1.038.712-1.979.712-1.326,0-2.709-.907-2.723-.916-.066-.044-1.645-1.084-3.277-1.084-.768,0-1.41.229-1.895.482.472-2.27,2.487-3.982,4.895-3.982Zm0,10c-2.684,0-4.865-2.131-4.979-4.788.313-.243,1.038-.712,1.979-.712,1.326,0,2.709.907,2.723.916.066.044,1.645,1.084,3.277,1.084.768,0,1.41-.229,1.895-.482-.472,2.27-2.487,3.982-4.895,3.982Z"/>
</svg>
