<?xml version="1.0" encoding="UTF-8"?>
<svg xmlns="http://www.w3.org/2000/svg" id="Layer_1" data-name="Layer 1" viewBox="0 0 24 24">
  <path d="m17.5,0H6.5C4.019,0,2,2.019,2,4.5v15c0,2.481,2.019,4.5,4.5,4.5h11c2.481,0,4.5-2.019,4.5-4.5V4.5c0-2.481-2.019-4.5-4.5-4.5Zm3.5,19.5c0,1.93-1.57,3.5-3.5,3.5H6.5c-1.93,0-3.5-1.57-3.5-3.5V4.5c0-1.93,1.57-3.5,3.5-3.5h11c1.93,0,3.5,1.57,3.5,3.5v15ZM6,5c-.552,0-1-.448-1-1s.448-1,1-1,1,.448,1,1-.448,1-1,1Zm3-1c0-.552.448-1,1-1s1,.448,1,1-.448,1-1,1-1-.448-1-1Zm3,4c-3.309,0-6,2.691-6,6s2.691,6,6,6,6-2.691,6-6-2.691-6-6-6Zm0,11c-2.757,0-5-2.243-5-5s2.243-5,5-5,5,2.243,5,5-2.243,5-5,5Zm0-6.636c0,1.025-1.063,1.924-1.184,2.023-.315.26-.816.83-.816,1.25,0,.433.583.84.739.925.242.132.332.436.199.678-.09.167-.262.261-.438.261-.081,0-.163-.02-.239-.061-.129-.07-1.261-.719-1.261-1.803,0-1.026,1.062-1.924,1.184-2.023.315-.26.816-.83.816-1.249,0-.433-.583-.84-.739-.925-.242-.132-.332-.436-.199-.678.132-.243.436-.331.678-.2.129.07,1.261.719,1.261,1.803Zm3,0c0,1.025-1.063,1.924-1.184,2.023-.315.26-.816.83-.816,1.25,0,.433.583.84.739.925.242.132.332.436.199.678-.09.167-.262.261-.438.261-.081,0-.163-.02-.239-.061-.129-.07-1.261-.719-1.261-1.803,0-1.026,1.062-1.924,1.184-2.023.315-.26.816-.83.816-1.249,0-.433-.583-.84-.739-.925-.242-.132-.332-.436-.199-.678.131-.243.436-.331.678-.2.129.07,1.261.719,1.261,1.803Z"/>
</svg>
