<?xml version="1.0" encoding="UTF-8"?>
<svg xmlns="http://www.w3.org/2000/svg" id="Layer_1" data-name="Layer 1" viewBox="0 0 24 24">
  <path d="m24,16.499l-.013-9.999c0-2.481-2.019-4.5-4.5-4.5H4.5C2.019,2,0,4.019,0,6.5l.013,10c0,1.953,1.258,3.602,3,4.224v1.776c0,.276.224.5.5.5s.5-.224.5-.5v-1.551c.166.019.329.051.5.051h14.987c.171,0,.334-.032.5-.051v1.551c0,.276.224.5.5.5s.5-.224.5-.5v-1.776c1.742-.621,3-2.271,3-4.225Zm-4.5,3.501H4.513c-1.93,0-3.5-1.57-3.5-3.501l-.013-9.999c0-1.93,1.57-3.5,3.5-3.5h14.987c1.93,0,3.5,1.57,3.5,3.5l.013,10c0,1.93-1.57,3.5-3.5,3.5Zm-3-15H4.487c-.827,0-1.5.673-1.5,1.5l.013,10c0,.827.673,1.5,1.5,1.5h12.013c.827,0,1.5-.673,1.5-1.501l-.013-9.999c0-.827-.673-1.5-1.5-1.5Zm.013,12H4.5c-.276,0-.5-.225-.5-.501l-.013-9.999c0-.276.224-.5.5-.5h12.013c.276,0,.5.224.5.5l.013,10c0,.275-.224.5-.5.5Zm4.487-11.5v12c0,.276-.224.5-.5.5s-.5-.224-.5-.5V5.5c0-.276.224-.5.5-.5s.5.224.5.5Z"/>
</svg>
